<svg xmlns="http://www.w3.org/2000/svg" xmlns:xlink="http://www.w3.org/1999/xlink" viewBox="0 0 22 6"><defs><style>.cls-1{fill:none;}.cls-2{clip-path:url(#clip-path);}.cls-3{fill:#fff;}</style><clipPath id="clip-path"><rect class="cls-1" x="-1838" y="-366" width="1500" height="1000"/></clipPath></defs><g id="Text_Effect" data-name="Text Effect"><path class="cls-3" d="M1.46875,4.90186A1.17524,1.17524,0,0,1,.8924,4.76843a.88465.88465,0,0,1-.36622-.37988,1.31037,1.31037,0,0,1-.12677-.6v-1.394a1.45006,1.45006,0,0,1,.1261-.62427,1.12312,1.12312,0,0,1,.36377-.44152,1.30943,1.30943,0,0,1,.57263-.226.94633.94633,0,0,1,.55768.05506.74222.74222,0,0,1,.35285.38574,2.07,2.07,0,0,1,.15069.72217q-.32639.03-.65259.06286a1.15487,1.15487,0,0,0-.065-.332.36417.36417,0,0,0-.13568-.18225.30527.30527,0,0,0-.20673-.03821.43778.43778,0,0,0-.30261.167.59185.59185,0,0,0-.10992.37536q.00083.71832.00171,1.43628a.51562.51562,0,0,0,.1112.355.37483.37483,0,0,0,.304.11878.33586.33586,0,0,0,.28412-.15528.96549.96549,0,0,0,.12189-.45935q.32665-.01647.65338-.03149a2.26874,2.26874,0,0,1-.14917.743.90706.90706,0,0,1-.35035.43664A1.04723,1.04723,0,0,1,1.46875,4.90186Z"/><path class="cls-3" d="M3.564.85132q.00705,2.00463.014,4.00915-.32355.00037-.64691.00086Q2.92478,2.897,2.91852.93262,3.24116.88995,3.564.85132Z"/><path class="cls-3" d="M4.13953,4.85706Q4.1321,2.82147,4.12476.78613q.322-.03626.64416-.0686c.36328.952.72681,1.933,1.09,2.936l-.06311.09778Q5.79044,2.18726,5.78491.62305,6.08319.59777,6.38135.5752q.00714,2.13939.014,4.27954-.32594,0-.65186.00061Q5.20365,3.3938,4.6637,2.00146L4.722,1.90332q.0055,1.47657.01081,2.953Q4.43615,4.85688,4.13953,4.85706Z"/><path class="cls-3" d="M7.00574,4.85718Q6.99923,2.69453,6.99286.5321,7.311.51159,7.62909.49365q.00576,2.18153.01147,4.36316Q7.32325,4.85718,7.00574,4.85718Zm.24377-3.58594Q7.24842.89332,7.24738.51587q.8627-.05274,1.726-.0824.00073.38471.00134.76953Q8.11166,1.22736,7.24951,1.27124Zm.00513,1.80334Q7.25355,2.7,7.2525,2.3252q.764-.02748,1.52826-.04432l.00147.76233Q8.01813,3.05494,7.25464,3.07458ZM7.2597,4.85706q-.001-.37776-.00213-.75538.861-.00951,1.722-.015.00083.38471.00135.76953Q8.12028,4.85676,7.2597,4.85706Z"/><path class="cls-3" d="M10.50928,4.90186A1.00566,1.00566,0,0,1,9.54169,4.276a1.73355,1.73355,0,0,1-.13532-.71033q-.00119-.9276-.00256-1.85485A1.75137,1.75137,0,0,1,9.53754.99573,1.06887,1.06887,0,0,1,9.92059.52466a1.05214,1.05214,0,0,1,.58649-.17053,1.032,1.032,0,0,1,.58655.15966,1.05258,1.05258,0,0,1,.38366.4657,1.75919,1.75919,0,0,1,.1344.71643q-.00045.93183-.00085,1.86341a1.75217,1.75217,0,0,1-.13458.71411,1.0033,1.0033,0,0,1-.967.62842Zm-.00037-.79981a.39416.39416,0,0,0,.32874-.15857.68793.68793,0,0,0,.12072-.42761q-.00027-.89062-.00024-1.78149a.68933.68933,0,0,0-.121-.42774.39308.39308,0,0,0-.32965-.15576.39875.39875,0,0,0-.32807.16077.692.692,0,0,0-.12207.42883q.00074.88933.00159,1.77807a.67863.67863,0,0,0,.12256.42615A.39152.39152,0,0,0,10.50891,4.10205Z"/><path class="cls-3" d="M13.50092,3.1261q.32281-1.33648.6466-2.65527.36228.01738.72455.03906Q14.866,2.68372,14.86,4.85706q-.28684-.00019-.57374-.00037.00394-1.6139.00782-3.22827l.03137.19385q-.30258,1.19055-.60437,2.39807l-.44452-.00269q-.29709-1.18451-.5954-2.37793l.037-.25586q-.002,1.63587-.00421,3.27222-.2893-.00018-.57862-.00012Q12.13725,2.631,12.139.40576q.36529.006.7301.01612Q13.18573,1.77905,13.50092,3.1261Z"/><path class="cls-3" d="M15.47028,4.85449Q15.477,2.70228,15.4837.54956q.3229.02233.64557.04834Q16.6644,2.166,17.19836,3.67578l-.0639.0929q.00567-1.54047.01117-3.08106.29791.02858.59558.06018-.00769,2.05427-.015,4.10877-.32593-.00055-.65186-.00074Q16.545,3.41169,16.01483,1.90442l.059-.09363q-.005,1.52234-.01019,3.04419Q15.76687,4.8548,15.47028,4.85449Z"/><path class="cls-3" d="M18.94812.88757q-.00678,1.98671-.01349,3.97327l-.64691-.00073q.00732-2.02533.01459-4.0503Q18.6254.847,18.94812.88757Z"/><path class="cls-3" d="M19.191,4.86121c.37134-1.31336.7417-2.57947,1.11005-3.78882q.21157.0313.42279.064c.36273,1.29871.727,2.545,1.094,3.72888q-.32959-.00036-.65912-.00109Q20.833,3.641,20.50983,2.35022q-.32868,1.2235-.65967,2.51184Q19.52047,4.86151,19.191,4.86121Zm.61456-.60706q.00082-.32886.00183-.6582.70716.03259,1.4137.07129-.00047.3109-.00073.62231Q20.51309,4.27014,19.80554,4.25415Z"/></g></svg>